<svg version="1.1" xmlns="http://www.w3.org/2000/svg" xmlns:xlink="http://www.w3.org/1999/xlink" x="0px" y="0px" width="1086px"
	 height="367.5px" viewBox="0 0 1086 367.5" style="enable-background:new 0 0 1086 367.5;" xml:space="preserve">
<style type="text/css">
	.st0{fill:#174F7D;}
	.st1{fill:#D1D3D4;}
	.st2{fill:#1A517F;}
	.st3{fill:#18507E;}
	.st4{fill:#164E7C;}
	.st5{fill:#36678E;}
	.st6{fill:#144D7B;}
	.st7{fill:#134D7B;}
	.st8{fill:#144D7C;}
	.st9{fill:#154E7C;}
	.st10{fill:#154D7C;}
	.st11{fill:#19507E;}
</style>
<g id="n5AJ2f.tif_1_">
	<g>
		<path class="st0" d="M201.8,0c4.6,0.9,9.2,2,13.8,2.8c79.5,14.1,141,79.2,150.2,159c11.1,96.5-52.1,184.3-147.6,202.3
			C110.5,384.4,20.4,311.8,3.2,217.9C-15.2,117.8,48.6,23.7,148,3.4c5.6-1.1,11.2-2.3,16.8-3.4C177.2,0,189.5,0,201.8,0z
			 M192.9,196.6c0.4-0.3,0.7-0.6,1.1-0.9c0.2-0.4,0.5-0.8,0.7-1.3c-0.6,0.2-1.1,0.4-1.7,0.6c-0.2,0.3-0.5,0.7-0.7,1
			c-0.1,0.5-0.1,0.9-0.2,1.4C192.4,197.1,192.6,196.8,192.9,196.6z M29.3,269.9c-0.4-0.2-0.7-0.4-1.1-0.6c0,0.5,0.1,1,0.1,1.5
			c9.1,16.8,20.9,31.5,36,45.4c-3.5-15,0.3-27.3,7.4-39.5C56.9,275.9,42.2,278.1,29.3,269.9z M136,81.8c-4.8,16.5-6.9,33.1-3.1,50.1
			c2.5,11.2,8.4,20.5,16.7,28.6c0.4-5.2,1.7-10,0.8-14.3c-1.9-9.9,2.1-21.6,10.8-26.7c1.9-1.1,5.2-1.8,6.8-0.9
			c1.6,0.9,2.7,4.1,2.8,6.3c0.3,8.1-6.6,21.5-18,23.8c-1.1,8.5-0.4,16.2,7.1,22.3c5.3,4.4,9.8,9.9,14.6,15c1.8,1.9,3.4,4.1,5.8,7
			c-1.2-31.9-3.9-62.5,3.3-92.9c7.3,30.3,4.6,61.1,3.3,92c7.3-7.6,13.9-15.2,21.3-22c5.9-5.4,7-11.7,6.5-18.9
			c-0.1-1.2-1.1-2.9-2.1-3.3c-11.1-3.6-14.8-12.6-16.3-22.9c-0.3-2.1,1.2-5.5,3-6.7c1.4-0.9,5-0.1,6.7,1.1
			c7.4,5.1,12.2,12.6,11.4,21.4c-0.6,6.1,0.3,12-0.1,18c0,0.4-0.1,0.9-0.1,1.3c0.3-0.2,0.6-0.4,0.9-0.6c1.2-1.1,2.4-2.2,3.5-3.5
			c13.8-15.7,16.2-34.4,13.8-54.2c-0.6-4.8-1.5-9.5-2.2-14.3c0.5,0,1-0.1,1.4-0.1c5.4,16.9,6.6,34.1,2,51.6
			c-0.1,0.4-0.3,0.7-0.4,1.1c0.4-0.1,0.7-0.2,1.1-0.3c9.5-6,19.8-9,31-9c4.9,0,9.9-0.5,14.8-0.8c0.6,0.1,1.3,0.2,1.9,0.3
			c-1.4,0.8-2.8,1.6-3.7,2.2c3.8,2.9,8.3,5.5,11.7,9.2c3.2,3.5,5.2,8.2,7.8,12.4c-0.3,0.7-0.7,1.4-1,2.1c-0.7,3.6-1.4,7.3-2.1,10.9
			c-0.4-0.5-0.7-1-1.1-1.6c4.7-22.9-19.1-37.2-39.4-30.7c2.1,1.2,4.1,2.4,6.1,3.6c-2,0.5-3.4-0.1-4.9-0.6c-8.2-2.8-20.6,2-25.5,9.1
			c-5.1,7.3-10.6,14.4-16.4,21.2c-6.2,7.2-12.9,13.9-19.3,20.8c-1.1,1.2-1.9,2.8-2.9,4.2c0.3,0.3,0.6,0.6,0.9,0.9
			c1.2-0.9,2.4-1.9,3.7-2.6c6.9-4,13.4-8.8,20.7-11.7c12.6-5.1,25.6-5.6,38.2,0.5c0,0.7,0,1.3,0,2c-22.8-7.2-49.9,1.3-62.8,19.9
			c3.5,0,7.1,0.8,10.2-0.1c8.9-2.6,19.3-0.2,24.7,6.7c1.3,1.6,2.5,4.7,1.8,6.1c-0.9,1.7-3.8,3.2-5.9,3.4c-9.5,0.9-18.9-5-22.6-13.7
			c-12.1-0.7-16.7,2.8-15.3,14.7c1.8,14.4,5.2,28.6,8.5,42.8c2.3,9.9,9.5,14.9,19.3,17.2c19.7,4.6,38.2,0.7,56.5-6.5
			c6.7-2.6,14-4.1,21.1-5.4c6.7-1.2,13.5-1.9,20.4-2c15.7-0.4,25.8-8.6,31.9-22.3c13.3-29.7,18.5-60.9,12.6-92.9
			C336.1,30.1,200-31.7,94.1,29.7C38.7,61.9-8,133.5,11.1,212.4c3.8,15.6,7.8,31.1,18.9,43.3c3,3.4,7.5,6.1,11.9,7.4
			c6.3,1.9,13.1,2.5,19.7,3.1c13.1,1.2,25.9,2.9,38.2,8.3c15,6.6,31,8.5,47.4,5.8c12.5-2,21.6-7.8,24.4-20.7
			c2.9-13.4,5.9-26.9,7.6-40.5c1.4-11.5-4-15.6-15.6-14.2c-3.3,8.8-15.2,15.4-24.2,13.4c-4.4-1-5.8-3.9-3.6-7.7
			c3.6-6.3,16.2-11.4,23.2-9.6c4.3,1.1,8.7,1.4,13.1,2.1c-9.9-11.8-21.6-19.7-36.3-22.8c-15.2-3.2-28.3,1.5-40.5,10.4
			c9.3-9.7,20.5-14.6,33.8-14.4c15,0.3,27.7,6.4,39.2,15.4c1.3,1,2.6,1.9,3.9,2.9c0.3-0.4,0.6-0.7,0.9-1.1c-1.2-1.6-2.2-3.2-3.5-4.6
			c-6.3-6.8-13-13.4-19-20.5c-5.8-6.8-11.4-13.8-16.4-21.2c-5.4-7.9-18.8-12.4-27.3-8.4c-2,1-3.3,1.8-3.1,4.8
			c0.5,6.5-5.8,15-11.8,17c-3.9,1.3-6.2-0.3-6.1-4.4c0.2-6.1,7.3-14.6,13.1-16.3c3.9-1.1,7.6-2.9,12.7-4.9
			c-12.1-2.3-22.2-1.7-31.2,4.8c-8.6,6.3-12.6,17-9.5,25.8c0.5,1.6,2.5,3.2,4.1,3.7c5.7,1.5,11.8,8.5,12,14.5
			c0.1,4.3-2.4,6.3-6.4,4.6c-5.4-2.3-9.3-6.5-9.8-12.3c-0.4-4.9-1.9-9.1-3.6-13.5c-0.9-2.3-1.1-4.9-1.7-7.4
			c4.8-8.8,9.9-18.1,21-21.7c-2.1-1.2-3.5-2-4.9-2.8c0.3-0.3,0.7-0.6,1-0.9c3.4,0.6,6.9,2,10.2,1.7c13.6-1.2,26.1,1.6,37.3,9
			c-0.9-6.9-2.2-13.8-2.5-20.7c-0.6-13.4,2.7-26.3,6.4-39.1C134.9,81.2,135.4,81.5,136,81.8z M183.4,284
			c-11,24.4-17.9,49.9-13.8,77.4c9.4,0,18.7,0,27.7,0C201.3,333.5,194.2,308.2,183.4,284z M199.8,294.7c-0.4,0.1-0.7,0.2-1.1,0.3
			c5.9,13.8,11.5,27.7,17.9,41.3c2.5,5.3,6.6,9.9,10.6,14.3c3.7,4.2,7.4,4.3,12.4,1.6c-1.1-14.9-8.2-32.1-16.9-39.4
			C215.2,306.6,207.4,300.8,199.8,294.7z M126.7,352.6c5.9,2.7,10.5,1.5,13.7-2.8c4.4-5.8,9.1-11.6,12.1-18.1
			c5.1-10.9,9.1-22.4,13.5-33.7c0.4-1.1,0.6-2.2,1-3.6c-5.6,4.6-10.6,9.4-16.2,13.1C134.4,318.2,129.8,334.7,126.7,352.6z
			 M303.1,314.1c8.5-3.2,35-37.2,35-44.8c-12.9,9.3-28,6.3-42.9,7.4C302.4,288.7,306.1,300.7,303.1,314.1z M271.6,300.6
			c-18.4-13.8-40-9-60.2-12.5C226.3,309.8,248.4,313.3,271.6,300.6z M95.6,300.7c25.3,13.6,46.9,7.3,59.7-12.4
			C111.5,291.9,105,293.2,95.6,300.7z M128.8,320.9c-14.6,3.3-30.2,6.8-47,10.6c14.1,7.2,27.7,14.1,41.1,21
			C125.1,340.7,127,330.4,128.8,320.9z M283.4,331.1c-15.4-3.5-31-7-45.6-10.3c1.8,9.4,3.8,19.8,5.8,30.6
			C257.8,346.5,271.4,339.6,283.4,331.1z M72.1,323.8c3.3-19.4,16.6-29,30.6-39c-6.4-2.1-12.3-3.7-17.9-5.8
			c-3.3-1.2-5.3-0.1-7.3,2.3c-8.2,10-10.1,21.7-9.2,34.1C68.4,317.9,70.4,320.3,72.1,323.8z M295.9,322.5c1-2.6,3.1-5.3,2.9-7.8
			c-0.5-7.5-1.2-15.2-3.2-22.4c-1.2-4.4-4.7-8.2-7.4-12.1c-0.7-0.9-2.7-1.8-3.7-1.5c-6.6,1.8-13.1,4-20.2,6.3
			C278.6,294.7,291.5,304.6,295.9,322.5z M90.2,303c-4.8,6.2-10.6,13.5-16.4,20.9c7.8,4.8,32.8-1.4,43.2-9.3
			C109.2,311.2,100.7,307.5,90.2,303z M293.1,325.5c-5.2-9.3-10.2-17.4-17-22.1c-9.6,4.2-18.1,7.9-27.4,12
			c11.6,3.8,23,7.9,34.7,11.3C286,327.4,289.3,326,293.1,325.5z M162.4,333c-6.9,7.6-14.5,15.8-22.2,24.2c8.3,1.4,16.9,2.8,25.4,4.3
			C164.4,350.9,163.3,341.4,162.4,333z M226.3,357.1c-7.7-8.5-15.2-16.8-22-24.2c-1,8.7-2.1,18.3-3.2,28.6
			C209.7,360,218.3,358.5,226.3,357.1z"/>
		<path class="st1" d="M1086,301.2c-34.3,0-68.6,0-102.9,0c-0.7,0-1.4,0.2-2-0.1c-1-0.5-2-1.2-2.9-1.8c1-0.7,2.1-2.1,3.1-2.1
			c6.8-0.2,13.6-0.1,20.5-0.1c1.6,0,3.2,0,5.8,0c-2.7-6.5-5-12.1-7.4-17.6c-9.3-21.6-18.7-43.2-28.2-64.7c-0.7-1.5-3-3.2-4.6-3.2
			c-23.3-0.2-46.6-0.2-69.9,0c-1.4,0-3.6,1.2-4.1,2.4c-11.2,26.6-22.1,53.3-33.1,79.9c-0.3,0.7-0.4,1.5-0.9,3.3c6.8,0,13.2,0,19.5,0
			c1.3,0,2.7-0.3,4,0.1c1.5,0.4,2.9,1.3,4.3,2c-1.4,0.7-2.8,1.9-4.3,1.9c-17.1,0.1-34.3,0.1-51.4,0c-1.3,0-2.7-1.1-4-1.7
			c1.3-0.8,2.7-2.1,4-2.2c5.6-0.2,11.3-0.4,17,0c4.1,0.3,6-1.5,7.4-5c6.6-16.5,13.4-32.8,20.1-49.3c15.8-38.5,31.6-77,47.4-115.5
			c7.8-19,15.5-38,23.2-57.1c1.5-3.8,3.5-6.6,8-5.4c1.5,0.4,3.3,1.6,3.8,2.9c15.1,34.6,30.1,69.3,45.2,104
			c12.4,28.6,24.9,57.1,37.3,85.7c5,11.4,9.9,22.8,14.6,34.3c1.6,3.9,3.8,5.6,8.2,5.3c7.5-0.4,15-0.1,22.5-0.1
			C1086,298.5,1086,299.9,1086,301.2z M931.4,119.9c-12,29.4-23.6,57.7-35.2,86.1c24.3,0,47.9,0,72.4,0
			C956.2,177.2,944.1,149.2,931.4,119.9z"/>
		<path class="st1" d="M419,302c-0.2-2.8-0.3-4.2-0.3-5.7c0-20.3-0.1-40.5,0.1-60.8c0-1.7,1.4-3.4,2.2-5c1.2,1.5,3.1,2.8,3.5,4.5
			c4.2,19.5,12.6,36.6,27.5,50.2c11.2,10.2,24.1,16,39.6,16.2c13.4,0.1,26.4-0.5,38.6-7.2c19.6-10.9,30.1-37.3,21.3-56.8
			c-4.6-10.4-13.7-16.7-24-20.5c-13.5-5-27.4-8.8-41.2-13.3c-17.1-5.6-34.1-11.5-47.1-24.8c-21-21.5-20.7-61.3-0.1-83.1
			c13.1-13.9,28.9-22.2,47.4-25.4c17.7-3.1,34.6,0.4,51.1,6.7c4.8,1.8,9.8,3.3,14.8,3.8c2.2,0.2,4.7-2.2,6.9-3.5
			c1.5-0.9,2.9-2,4.4-3.1c0.6,1.7,1.7,3.3,1.7,5c0.1,17.1,0.1,34.2,0,51.3c0,1.4-1,2.8-1.5,4.2c-1.2-1.1-2.8-2.1-3.4-3.4
			c-4.6-10.4-8.3-21.4-13.8-31.3c-9.5-17.1-24.6-25.6-44.4-26.1c-16.1-0.3-30.6,3.4-42.8,14.1c-14.4,12.6-16.2,35.1-3.3,47.3
			c11.5,10.9,25.7,15.5,39.9,20.4c16.9,5.8,34.2,10.9,50.6,18c16.6,7.2,30,19,34.8,37.4c6.3,24,0.8,46-15.3,64.9
			c-14.5,17.1-33.8,26-55.7,29.2c-18,2.6-35.6-0.8-53-5.3c-7.8-2-15.7-3.9-23.7-5.5c-4-0.8-7.4,0.5-9.4,4.7
			C423.8,300.3,421.4,300.8,419,302z"/>
		<path class="st1" d="M815,301.7c-1.8-1-4.1-1.6-5.3-3.1c-3.1-3.8-7-5-11.5-3.9c-12.9,3-25.7,6.7-38.7,9.2
			c-21.7,4.2-42.9,1.5-63.3-7c-33.4-13.9-57.2-37.7-68.7-71.8c-13.8-41.2-5.9-79.1,22.3-112.4c18.5-21.8,42-35.2,69.7-41.5
			c18.6-4.3,36.8-1.6,54.9,3.4c8.4,2.4,17,4.2,25.5,6.1c3.8,0.8,6.7-0.8,8.6-4.4c0.6-1.1,2.5-1.6,3.8-2.4c0.6,1.3,1.8,2.6,1.8,3.9
			c0.1,19.3,0.1,38.6,0,57.8c0,1.3-1.3,2.5-1.9,3.8c-1.1-1.1-2.5-1.9-3.1-3.2c-5.4-11.5-9.5-23.8-16.2-34.6
			c-11.6-18.8-29.2-28.2-51.7-28c-13.1,0.1-25.8,1.5-37.3,8.7c-13.5,8.4-21.1,21.2-24.4,36.2c-2.7,12.2-4.3,24.8-5.1,37.2
			c-1,17-1.3,34.2-1,51.2c0.3,17.7,2,35.4,7.1,52.4c4.1,13.6,10.4,25.9,23.1,33.6c9,5.5,19.2,7.1,29.5,8c19.8,1.8,37.2-4.3,51.4-18
			c12.9-12.4,20.5-28,25.4-45c0.2-0.6,0-1.5,0.4-1.9c1.1-1,2.3-1.8,3.5-2.7c0.7,1.2,2.1,2.4,2.1,3.6c0.2,10.6,0.1,21.3,0.1,31.9
			c0,10.4,0,20.9,0,31.3C815.8,300.8,815.4,301.3,815,301.7z"/>
		<path class="st2" d="M300.7,154.5c2.8,2.1,5,3.1,9,1.2c6.4-2.9,13.1-0.8,18.5,3.7c3.5,2.9,2.6,6.3-1.7,7.8
			c-6.7,2.4-16.2-0.8-20.6-6.4c-1.5-1.9-4.1-2.9-6.3-4.3C300.1,155.9,300.4,155.2,300.7,154.5z"/>
		<path class="st3" d="M297.6,167.5c-0.3,1.7-1,3.4-0.9,5.1c0.2,5.9-4,13.3-9.6,15.5c-1.6,0.6-4.3,0.8-5.5-0.1
			c-1.2-0.9-1.7-3.5-1.5-5.3c0.8-6.4,6.4-11.7,12.8-13.4c1.4-0.4,2.4-2.2,3.6-3.3C296.9,166.5,297.2,167,297.6,167.5z"/>
		<path class="st4" d="M134.3,80.9c-3.7-6.2,0.6-17.6,7.5-19.8c3.3-1,5.1,0.6,5.8,3.6c1.5,6.7-4.7,15.8-11.6,17.1
			C135.4,81.5,134.9,81.2,134.3,80.9z"/>
		<path class="st5" d="M272.5,192.5c-4.9-3.3-9.8-6.7-14.7-10c0-0.7,0-1.3,0-2c5.4,4,10.8,7.9,16.2,11.9
			C273.5,192.4,273,192.5,272.5,192.5z"/>
		<path class="st4" d="M286.2,130.2c-0.4,0.2-0.8,0.4-1.2,0.6c-0.6-0.1-1.3-0.2-1.9-0.3c0.7-0.4,1.5-0.8,2.2-1.2
			C285.6,129.6,285.9,129.9,286.2,130.2z"/>
		<path class="st6" d="M81.8,130.7c-0.4-0.3-0.8-0.5-1.1-0.8c0.3-0.3,0.6-0.6,0.8-0.8c0.5,0.3,0.9,0.5,1.4,0.8
			C82.5,130.1,82.2,130.4,81.8,130.7z"/>
		<path class="st7" d="M155.6,85.2c7.2,21.6-2.1,37.3-17.4,51C131.3,120.5,138.5,99.5,155.6,85.2z"/>
		<path class="st7" d="M211.1,85.3c16.7,10.9,22.8,27.8,18.3,50.8C212.7,124.6,206.3,107,211.1,85.3z"/>
		<path class="st8" d="M86.1,98.9c20.4,2.1,29.4,15.8,34.9,33.2C105.8,132.3,90.3,117.6,86.1,98.9z"/>
		<path class="st6" d="M280.7,98.8c-2.7,20.2-16.6,28.9-34.2,33.8C247.6,116.5,263.1,101.2,280.7,98.8z"/>
		<path class="st8" d="M183.6,41.6c12.2,16.2,8.8,32.5,0,49.1C174.8,73.9,171.3,57.5,183.6,41.6z"/>
		<path class="st9" d="M105.2,67.9c16.6,10.7,18.2,26.6,15.4,44.1C107.2,105.1,99.6,83.5,105.2,67.9z"/>
		<path class="st10" d="M209.8,192.8c16-9.2,31.5-13.5,47.3-1.7C242.3,201.5,234.2,203.6,209.8,192.8z"/>
		<path class="st10" d="M156.7,192.9c-17.9,9.7-33.9,9.1-47.1-1.9C125.9,181.3,142.9,182,156.7,192.9z"/>
		<path class="st9" d="M219.9,175.5c8.1-19.1,17.2-25.9,37.7-28.5C251.7,164.1,245.4,171.1,219.9,175.5z"/>
		<path class="st6" d="M109.1,147.3c19.9-0.6,30.5,11.4,38,27.6C131,176,116.5,165.4,109.1,147.3z"/>
		<path class="st6" d="M261.9,67.9c6.5,18.6-1.7,32.3-14.8,44.4C241.2,96.8,247.8,77.1,261.9,67.9z"/>
		<path class="st0" d="M40,144.4c9.9-13.4,23.4-14.5,38.2-11.2C71.4,144.8,53.2,150.1,40,144.4z"/>
		<path class="st0" d="M327.3,144.5c-14.3,5.2-28.8,1.1-38.4-10.9C303.9,128.5,317.5,132.4,327.3,144.5z"/>
		<path class="st0" d="M199.8,75.1c6.5,15,0.6,26.7-9.7,37.5C186.3,98,187.1,85,199.8,75.1z"/>
		<path class="st9" d="M167.1,74.9c12.9,10,13.5,22.9,10.1,36.9C166.6,105.3,162.4,90,167.1,74.9z"/>
		<path class="st4" d="M50.7,196.9c-4.2-15.4,2.8-26,14-35.1C68.1,176.4,63,188.9,50.7,196.9z"/>
		<path class="st9" d="M302,161.8c13.2,9.2,17.7,20.2,14.4,34.9C302.6,189.1,300.6,176.4,302,161.8z"/>
		<path class="st2" d="M160.6,151.1c12.8,6.2,15.4,17.2,15.1,30.5C164.8,173.8,158,164.9,160.6,151.1z"/>
		<path class="st3" d="M122.5,172.1c-12,5.9-23.1,8-33.8-1.2C99.8,162.7,110.8,165.4,122.5,172.1z"/>
		<path class="st11" d="M278.4,171c-10.9,9.1-22.1,7-33.8,1.2C256,165.4,267,162.7,278.4,171z"/>
		<path class="st11" d="M244.5,50.8c7.5,12.2,3.9,22.8-3.1,33.2C234.7,73.8,235.8,62.5,244.5,50.8z"/>
		<path class="st0" d="M126.2,84.6c-7.7-11.1-11.1-21.7-3.7-33.5C132.3,60.8,131.1,72.1,126.2,84.6z"/>
		<path class="st8" d="M206.3,151.2c3.2,13.9-4.2,22.5-14.7,30.3C190.9,168.3,193.7,157.4,206.3,151.2z"/>
		<path class="st0" d="M263.6,139.9c8.6,0.3,16.6,7.4,17.5,15.7c0.5,4.9-2.1,6.8-6.6,4.9C267.1,157.4,262.6,148.9,263.6,139.9z"/>
		<path class="st4" d="M285.3,129.3c0.3-7.5,3.3-13.8,9.9-17.6c2.3-1.4,5.7-0.9,8.6-1.3c-0.1,2.8,0.5,6-0.6,8.3
			c-3.3,7-8.9,11.2-17,11.5C285.9,129.9,285.6,129.6,285.3,129.3z"/>
		<path class="st9" d="M45.5,169.4c-3.2-2-7.5-3.2-8.3-5.6c-1.4-4,2.9-6.3,6.1-7c4.7-1,9.8-1.7,14.5-1c4.2,0.6,5,4.6,1.5,7
			C55.4,165.6,50.6,167,45.5,169.4z"/>
		<path class="st6" d="M80.7,129.9c-8.8-0.6-15.7-5.8-17.8-13.7c-0.5-1.8-0.3-4.8,0.8-5.8c1.2-1,4.2-1,5.9-0.2
			c7.7,3.8,11.8,10.1,12,18.8C81.3,129.3,81,129.6,80.7,129.9z"/>
		<path class="st4" d="M93.5,192.7c3.5,7.1-0.5,17.2-7.9,20c-3.4,1.3-5.8-0.2-6.2-3.9C78.6,201.4,85.8,193.2,93.5,192.7z"/>
		<path class="st10" d="M272.5,192.5c0.5-0.1,1-0.1,1.4-0.2c7.5,1.4,13.4,7.5,13.6,14.8c0.1,1.9-0.9,4.4-2.3,5.4
			c-1.1,0.8-4,0.2-5.4-0.8C273.2,207.2,270.6,200.6,272.5,192.5z"/>
		<path class="st10" d="M219.4,65.4c0.5-0.9,1.1-3.4,2.4-3.9c1.6-0.6,4.3,0,5.8,1.1c4.4,3.1,6.7,7.8,6.9,13.1
			c0.1,1.9-1.3,4.4-2.9,5.6c-0.9,0.7-3.8-0.2-5.2-1.2C222,76.7,219.8,72,219.4,65.4z"/>
	</g>
</g>
</svg>
